<mxfile host="app.diagrams.net" modified="2023-04-25T01:54:41.708Z" agent="Mozilla/5.0 (Windows NT 10.0; Win64; x64) AppleWebKit/537.36 (KHTML, like Gecko) Chrome/112.0.0.0 Safari/537.36" etag="QU7Y0iiiE-TFzYJug9I1" version="21.2.1" type="device">
  <diagram name="Page-1" id="2c0d36ab-eaac-3732-788b-9136903baeff">
    <mxGraphModel dx="1235" dy="646" grid="1" gridSize="10" guides="1" tooltips="1" connect="1" arrows="1" fold="1" page="1" pageScale="1.5" pageWidth="1169" pageHeight="827" background="none" math="0" shadow="0">
      <root>
        <mxCell id="0" />
        <mxCell id="1" parent="0" />
        <mxCell id="GwJ2g9Za8bwIHdjVY_Io-130" style="edgeStyle=orthogonalEdgeStyle;rounded=0;orthogonalLoop=1;jettySize=auto;html=1;exitX=0.5;exitY=1;exitDx=0;exitDy=0;entryX=0.5;entryY=0;entryDx=0;entryDy=0;strokeWidth=2;" parent="1" source="2" target="13" edge="1">
          <mxGeometry relative="1" as="geometry" />
        </mxCell>
        <mxCell id="GwJ2g9Za8bwIHdjVY_Io-131" style="edgeStyle=orthogonalEdgeStyle;rounded=0;orthogonalLoop=1;jettySize=auto;html=1;exitX=0.5;exitY=1;exitDx=0;exitDy=0;entryX=0.5;entryY=0;entryDx=0;entryDy=0;strokeWidth=2;" parent="1" source="2" target="12" edge="1">
          <mxGeometry relative="1" as="geometry" />
        </mxCell>
        <mxCell id="GwJ2g9Za8bwIHdjVY_Io-132" style="edgeStyle=orthogonalEdgeStyle;rounded=0;orthogonalLoop=1;jettySize=auto;html=1;exitX=0.5;exitY=1;exitDx=0;exitDy=0;strokeWidth=2;" parent="1" source="2" target="PegOi6qq_aGEcc1jAVn3-132" edge="1">
          <mxGeometry relative="1" as="geometry" />
        </mxCell>
        <mxCell id="GwJ2g9Za8bwIHdjVY_Io-133" style="edgeStyle=orthogonalEdgeStyle;rounded=0;orthogonalLoop=1;jettySize=auto;html=1;exitX=0.5;exitY=1;exitDx=0;exitDy=0;entryX=0.5;entryY=0;entryDx=0;entryDy=0;strokeWidth=2;" parent="1" source="2" target="GwJ2g9Za8bwIHdjVY_Io-119" edge="1">
          <mxGeometry relative="1" as="geometry" />
        </mxCell>
        <mxCell id="GwJ2g9Za8bwIHdjVY_Io-134" style="edgeStyle=orthogonalEdgeStyle;rounded=0;orthogonalLoop=1;jettySize=auto;html=1;exitX=0.5;exitY=1;exitDx=0;exitDy=0;strokeWidth=2;" parent="1" source="2" target="10" edge="1">
          <mxGeometry relative="1" as="geometry" />
        </mxCell>
        <mxCell id="2" value="Home" style="rounded=1;fillColor=#23445D;gradientColor=none;strokeColor=none;fontColor=#FFFFFF;fontStyle=1;fontFamily=Tahoma;fontSize=14" parent="1" vertex="1">
          <mxGeometry x="500" y="40" width="190" height="80" as="geometry" />
        </mxCell>
        <mxCell id="10" value="섬기는사람들" style="rounded=1;fillColor=#4586B8;gradientColor=none;strokeColor=none;fontColor=#FFFFFF;fontStyle=1;fontFamily=Tahoma;fontSize=14" parent="1" vertex="1">
          <mxGeometry x="956" y="224.5" width="190" height="80" as="geometry" />
        </mxCell>
        <mxCell id="12" value="교회비전" style="rounded=1;fillColor=#4586B8;gradientColor=none;strokeColor=none;fontColor=#FFFFFF;fontStyle=1;fontFamily=Tahoma;fontSize=14" parent="1" vertex="1">
          <mxGeometry x="269.9999999999999" y="224.5" width="190" height="80" as="geometry" />
        </mxCell>
        <mxCell id="13" value="교회소개" style="rounded=1;fillColor=#4586B8;gradientColor=none;strokeColor=none;fontColor=#FFFFFF;fontStyle=1;fontFamily=Tahoma;fontSize=14" parent="1" vertex="1">
          <mxGeometry x="40" y="224.5" width="190" height="80" as="geometry" />
        </mxCell>
        <mxCell id="PegOi6qq_aGEcc1jAVn3-132" value="예배안내" style="rounded=1;fillColor=#4586B8;gradientColor=none;strokeColor=none;fontColor=#FFFFFF;fontStyle=1;fontFamily=Tahoma;fontSize=14" parent="1" vertex="1">
          <mxGeometry x="500" y="224.5" width="190" height="80" as="geometry" />
        </mxCell>
        <mxCell id="GwJ2g9Za8bwIHdjVY_Io-138" style="edgeStyle=orthogonalEdgeStyle;rounded=0;orthogonalLoop=1;jettySize=auto;html=1;exitX=0.25;exitY=1;exitDx=0;exitDy=0;entryX=0;entryY=0.5;entryDx=0;entryDy=0;strokeWidth=2;fillColor=#dae8fc;strokeColor=#6c8ebf;" parent="1" source="GwJ2g9Za8bwIHdjVY_Io-119" target="GwJ2g9Za8bwIHdjVY_Io-121" edge="1">
          <mxGeometry relative="1" as="geometry">
            <Array as="points">
              <mxPoint x="776" y="300" />
              <mxPoint x="746" y="300" />
              <mxPoint x="746" y="374" />
            </Array>
          </mxGeometry>
        </mxCell>
        <mxCell id="GwJ2g9Za8bwIHdjVY_Io-119" value="교회소식" style="rounded=1;fillColor=#4586B8;gradientColor=none;strokeColor=none;fontColor=#FFFFFF;fontStyle=1;fontFamily=Tahoma;fontSize=14" parent="1" vertex="1">
          <mxGeometry x="728" y="224.5" width="190" height="80" as="geometry" />
        </mxCell>
        <mxCell id="GwJ2g9Za8bwIHdjVY_Io-120" style="edgeStyle=orthogonalEdgeStyle;rounded=0;orthogonalLoop=1;jettySize=auto;html=1;exitX=0;exitY=0.5;exitDx=0;exitDy=0;entryX=0;entryY=0.5;entryDx=0;entryDy=0;strokeWidth=2;fillColor=#dae8fc;strokeColor=#6c8ebf;" parent="1" edge="1">
          <mxGeometry relative="1" as="geometry">
            <mxPoint x="769" y="373.5" as="sourcePoint" />
            <mxPoint x="769" y="553.5" as="targetPoint" />
            <Array as="points">
              <mxPoint x="746" y="374" />
              <mxPoint x="746" y="554" />
            </Array>
          </mxGeometry>
        </mxCell>
        <mxCell id="GwJ2g9Za8bwIHdjVY_Io-121" value="교회 소식" style="rounded=1;fillColor=#dae8fc;strokeColor=#6c8ebf;fontStyle=1;fontFamily=Tahoma;fontSize=14;" parent="1" vertex="1">
          <mxGeometry x="770" y="343.5" width="130" height="60" as="geometry" />
        </mxCell>
        <mxCell id="GwJ2g9Za8bwIHdjVY_Io-128" style="edgeStyle=orthogonalEdgeStyle;rounded=0;orthogonalLoop=1;jettySize=auto;html=1;exitX=0;exitY=0.5;exitDx=0;exitDy=0;entryX=0;entryY=0.5;entryDx=0;entryDy=0;strokeWidth=2;fillColor=#dae8fc;strokeColor=#6c8ebf;" parent="1" source="GwJ2g9Za8bwIHdjVY_Io-122" target="GwJ2g9Za8bwIHdjVY_Io-121" edge="1">
          <mxGeometry relative="1" as="geometry">
            <Array as="points">
              <mxPoint x="746" y="464" />
              <mxPoint x="746" y="374" />
            </Array>
          </mxGeometry>
        </mxCell>
        <mxCell id="GwJ2g9Za8bwIHdjVY_Io-122" value="주보" style="rounded=1;fillColor=#dae8fc;strokeColor=#6c8ebf;fontStyle=1;fontFamily=Tahoma;fontSize=14;" parent="1" vertex="1">
          <mxGeometry x="770" y="433.5" width="130" height="60" as="geometry" />
        </mxCell>
        <mxCell id="GwJ2g9Za8bwIHdjVY_Io-123" value="" style="edgeStyle=elbowEdgeStyle;elbow=horizontal;strokeWidth=2;rounded=0;fillColor=#dae8fc;strokeColor=#6c8ebf;" parent="1" target="GwJ2g9Za8bwIHdjVY_Io-122" edge="1">
          <mxGeometry x="155" y="23.5" width="100" height="100" as="geometry">
            <mxPoint x="770" y="373.5" as="sourcePoint" />
            <mxPoint x="255" y="23.5" as="targetPoint" />
            <Array as="points">
              <mxPoint x="746" y="420" />
            </Array>
          </mxGeometry>
        </mxCell>
        <mxCell id="GwJ2g9Za8bwIHdjVY_Io-124" value="갤러리" style="rounded=1;fillColor=#dae8fc;strokeColor=#6c8ebf;fontStyle=1;fontFamily=Tahoma;fontSize=14;" parent="1" vertex="1">
          <mxGeometry x="770" y="523.5" width="130" height="60" as="geometry" />
        </mxCell>
        <mxCell id="Ka5hQ_6PfS1_v_SFMXNL-29" value="오시는길" style="rounded=1;fillColor=#4586B8;gradientColor=none;strokeColor=none;fontColor=#FFFFFF;fontStyle=1;fontFamily=Tahoma;fontSize=14" vertex="1" parent="1">
          <mxGeometry x="1186" y="224.5" width="190" height="80" as="geometry" />
        </mxCell>
        <mxCell id="Ka5hQ_6PfS1_v_SFMXNL-30" value="설교영상" style="rounded=1;fillColor=#4586B8;gradientColor=none;strokeColor=none;fontColor=#FFFFFF;fontStyle=1;fontFamily=Tahoma;fontSize=14" vertex="1" parent="1">
          <mxGeometry x="1416" y="224.5" width="190" height="80" as="geometry" />
        </mxCell>
        <mxCell id="Ka5hQ_6PfS1_v_SFMXNL-31" style="edgeStyle=orthogonalEdgeStyle;rounded=0;orthogonalLoop=1;jettySize=auto;html=1;exitX=0.5;exitY=1;exitDx=0;exitDy=0;strokeWidth=2;entryX=0.5;entryY=0;entryDx=0;entryDy=0;" edge="1" parent="1" source="2" target="Ka5hQ_6PfS1_v_SFMXNL-29">
          <mxGeometry relative="1" as="geometry">
            <mxPoint x="605" y="130" as="sourcePoint" />
            <mxPoint x="1061" y="235" as="targetPoint" />
          </mxGeometry>
        </mxCell>
        <mxCell id="Ka5hQ_6PfS1_v_SFMXNL-32" style="edgeStyle=orthogonalEdgeStyle;rounded=0;orthogonalLoop=1;jettySize=auto;html=1;exitX=0.5;exitY=1;exitDx=0;exitDy=0;strokeWidth=2;entryX=0.5;entryY=0;entryDx=0;entryDy=0;" edge="1" parent="1" source="2" target="Ka5hQ_6PfS1_v_SFMXNL-30">
          <mxGeometry relative="1" as="geometry">
            <mxPoint x="605" y="130" as="sourcePoint" />
            <mxPoint x="1291" y="235" as="targetPoint" />
          </mxGeometry>
        </mxCell>
      </root>
    </mxGraphModel>
  </diagram>
</mxfile>
